<svg width="22" height="22" viewBox="0 0 22 22" fill="none" xmlns="http://www.w3.org/2000/svg">
<g clip-path="url(#clip0_53_347)">
<path d="M21.0832 6.51851V15.4815C21.0832 16.9672 20.493 18.392 19.4424 19.4426C18.3919 20.4931 16.967 21.0833 15.4813 21.0833H6.51836C5.03265 21.0833 3.6078 20.4931 2.55725 19.4426C1.5067 18.392 0.916504 16.9672 0.916504 15.4815V6.51851C0.916504 5.0328 1.5067 3.60795 2.55725 2.5574C3.6078 1.50685 5.03265 0.916656 6.51836 0.916656H15.4813C16.967 0.916656 18.3919 1.50685 19.4424 2.5574C20.493 3.60795 21.0832 5.0328 21.0832 6.51851Z" stroke="white" stroke-width="2" stroke-linecap="round" stroke-linejoin="round"/>
<path d="M8.75906 11C8.0943 11 7.44446 11.1971 6.89173 11.5664C6.339 11.9358 5.90819 12.4607 5.6538 13.0749C5.39941 13.689 5.33284 14.3648 5.46253 15.0168C5.59222 15.6688 5.91234 16.2677 6.3824 16.7378C6.85246 17.2078 7.45135 17.5279 8.10334 17.6576C8.75533 17.7873 9.43114 17.7208 10.0453 17.4664C10.6595 17.212 11.1844 16.7812 11.5537 16.2284C11.923 15.6757 12.1202 15.0259 12.1202 14.3611V4.27777C12.4933 5.39814 13.9128 7.63888 16.6017 7.63888" stroke="white" stroke-width="2" stroke-linecap="round" stroke-linejoin="round"/>
</g>
<defs>
<clipPath id="clip0_53_347">
<rect width="22" height="22" fill="white"/>
</clipPath>
</defs>
</svg>
